<svg xmlns="http://www.w3.org/2000/svg" width="773" height="390" viewBox="0 0 773 390">
<rect width="100%" height="100%" fill="#fff"/>
<text x="16" y="28" font-family="Arial, sans-serif" font-size="18" font-weight="700">bra_band_in_display</text>
<text x="16" y="399" font-family="Arial, sans-serif" font-size="12" fill="#333">26-27</text>
<rect x="118" y="384" width="0" height="16" fill="#28666e"/>
<text x="126" y="397" font-family="Arial, sans-serif" font-size="12" fill="#333">4</text>
<text x="16" y="327" font-family="Arial, sans-serif" font-size="12" fill="#333">28-29</text>
<rect x="118" y="312" width="5" height="16" fill="#28666e"/>
<text x="131" y="325" font-family="Arial, sans-serif" font-size="12" fill="#333">75</text>
<text x="16" y="255" font-family="Arial, sans-serif" font-size="12" fill="#333">30-31</text>
<rect x="118" y="240" width="20" height="16" fill="#28666e"/>
<text x="146" y="253" font-family="Arial, sans-serif" font-size="12" fill="#333">264</text>
<text x="16" y="135" font-family="Arial, sans-serif" font-size="12" fill="#333">32-33</text>
<rect x="118" y="120" width="244" height="16" fill="#28666e"/>
<text x="370" y="133" font-family="Arial, sans-serif" font-size="12" fill="#333">3,155</text>
<text x="16" y="87" font-family="Arial, sans-serif" font-size="12" fill="#333">34-35</text>
<rect x="118" y="72" width="560" height="16" fill="#28666e"/>
<text x="686" y="85" font-family="Arial, sans-serif" font-size="12" fill="#333">7,230</text>
<text x="16" y="111" font-family="Arial, sans-serif" font-size="12" fill="#333">36-37</text>
<rect x="118" y="96" width="412" height="16" fill="#28666e"/>
<text x="538" y="109" font-family="Arial, sans-serif" font-size="12" fill="#333">5,321</text>
<text x="16" y="159" font-family="Arial, sans-serif" font-size="12" fill="#333">38-39</text>
<rect x="118" y="144" width="181" height="16" fill="#28666e"/>
<text x="307" y="157" font-family="Arial, sans-serif" font-size="12" fill="#333">2,349</text>
<text x="16" y="207" font-family="Arial, sans-serif" font-size="12" fill="#333">40-41</text>
<rect x="118" y="192" width="59" height="16" fill="#28666e"/>
<text x="185" y="205" font-family="Arial, sans-serif" font-size="12" fill="#333">762</text>
<text x="16" y="231" font-family="Arial, sans-serif" font-size="12" fill="#333">42-43</text>
<rect x="118" y="216" width="27" height="16" fill="#28666e"/>
<text x="153" y="229" font-family="Arial, sans-serif" font-size="12" fill="#333">355</text>
<text x="16" y="279" font-family="Arial, sans-serif" font-size="12" fill="#333">44-45</text>
<rect x="118" y="264" width="12" height="16" fill="#28666e"/>
<text x="138" y="277" font-family="Arial, sans-serif" font-size="12" fill="#333">161</text>
<text x="16" y="351" font-family="Arial, sans-serif" font-size="12" fill="#333">46-47</text>
<rect x="118" y="336" width="4" height="16" fill="#28666e"/>
<text x="130" y="349" font-family="Arial, sans-serif" font-size="12" fill="#333">56</text>
<text x="16" y="375" font-family="Arial, sans-serif" font-size="12" fill="#333">48-49</text>
<rect x="118" y="360" width="2" height="16" fill="#28666e"/>
<text x="128" y="373" font-family="Arial, sans-serif" font-size="12" fill="#333">30</text>
<text x="16" y="183" font-family="Arial, sans-serif" font-size="12" fill="#333">&lt;26</text>
<rect x="118" y="168" width="81" height="16" fill="#28666e"/>
<text x="207" y="181" font-family="Arial, sans-serif" font-size="12" fill="#333">1,053</text>
<text x="16" y="303" font-family="Arial, sans-serif" font-size="12" fill="#333">50+</text>
<rect x="118" y="288" width="7" height="16" fill="#28666e"/>
<text x="133" y="301" font-family="Arial, sans-serif" font-size="12" fill="#333">91</text>
</svg>
