<svg xmlns="http://www.w3.org/2000/svg" width="773" height="246" viewBox="0 0 773 246">
<rect width="100%" height="100%" fill="#fff"/>
<text x="16" y="28" font-family="Arial, sans-serif" font-size="18" font-weight="700">bust_in_number_display</text>
<text x="16" y="159" font-family="Arial, sans-serif" font-size="12" fill="#333">28-31</text>
<rect x="118" y="144" width="26" height="16" fill="#28666e"/>
<text x="152" y="157" font-family="Arial, sans-serif" font-size="12" fill="#333">293</text>
<text x="16" y="87" font-family="Arial, sans-serif" font-size="12" fill="#333">32-35</text>
<rect x="118" y="72" width="560" height="16" fill="#28666e"/>
<text x="686" y="85" font-family="Arial, sans-serif" font-size="12" fill="#333">6,192</text>
<text x="16" y="111" font-family="Arial, sans-serif" font-size="12" fill="#333">36-39</text>
<rect x="118" y="96" width="454" height="16" fill="#28666e"/>
<text x="580" y="109" font-family="Arial, sans-serif" font-size="12" fill="#333">5,028</text>
<text x="16" y="135" font-family="Arial, sans-serif" font-size="12" fill="#333">40-43</text>
<rect x="118" y="120" width="90" height="16" fill="#28666e"/>
<text x="216" y="133" font-family="Arial, sans-serif" font-size="12" fill="#333">998</text>
<text x="16" y="183" font-family="Arial, sans-serif" font-size="12" fill="#333">44-47</text>
<rect x="118" y="168" width="19" height="16" fill="#28666e"/>
<text x="145" y="181" font-family="Arial, sans-serif" font-size="12" fill="#333">217</text>
<text x="16" y="207" font-family="Arial, sans-serif" font-size="12" fill="#333">48-51</text>
<rect x="118" y="192" width="4" height="16" fill="#28666e"/>
<text x="130" y="205" font-family="Arial, sans-serif" font-size="12" fill="#333">47</text>
<text x="16" y="231" font-family="Arial, sans-serif" font-size="12" fill="#333">52-55</text>
<rect x="118" y="216" width="0" height="16" fill="#28666e"/>
<text x="126" y="229" font-family="Arial, sans-serif" font-size="12" fill="#333">5</text>
<text x="16" y="255" font-family="Arial, sans-serif" font-size="12" fill="#333">&lt;28</text>
<rect x="118" y="240" width="0" height="16" fill="#28666e"/>
<text x="126" y="253" font-family="Arial, sans-serif" font-size="12" fill="#333">1</text>
</svg>
