<svg xmlns="http://www.w3.org/2000/svg" width="773" height="294" viewBox="0 0 773 294">
<rect width="100%" height="100%" fill="#fff"/>
<text x="16" y="28" font-family="Arial, sans-serif" font-size="18" font-weight="700">bust_in_display</text>
<text x="16" y="231" font-family="Arial, sans-serif" font-size="12" fill="#333">28-31</text>
<rect x="118" y="216" width="16" height="16" fill="#28666e"/>
<text x="142" y="229" font-family="Arial, sans-serif" font-size="12" fill="#333">424</text>
<text x="16" y="87" font-family="Arial, sans-serif" font-size="12" fill="#333">32-35</text>
<rect x="118" y="72" width="560" height="16" fill="#28666e"/>
<text x="686" y="85" font-family="Arial, sans-serif" font-size="12" fill="#333">14,422</text>
<text x="16" y="111" font-family="Arial, sans-serif" font-size="12" fill="#333">36-39</text>
<rect x="118" y="96" width="409" height="16" fill="#28666e"/>
<text x="535" y="109" font-family="Arial, sans-serif" font-size="12" fill="#333">10,551</text>
<text x="16" y="135" font-family="Arial, sans-serif" font-size="12" fill="#333">40-43</text>
<rect x="118" y="120" width="113" height="16" fill="#28666e"/>
<text x="239" y="133" font-family="Arial, sans-serif" font-size="12" fill="#333">2,928</text>
<text x="16" y="159" font-family="Arial, sans-serif" font-size="12" fill="#333">44-47</text>
<rect x="118" y="144" width="49" height="16" fill="#28666e"/>
<text x="175" y="157" font-family="Arial, sans-serif" font-size="12" fill="#333">1,283</text>
<text x="16" y="207" font-family="Arial, sans-serif" font-size="12" fill="#333">48-51</text>
<rect x="118" y="192" width="23" height="16" fill="#28666e"/>
<text x="149" y="205" font-family="Arial, sans-serif" font-size="12" fill="#333">606</text>
<text x="16" y="255" font-family="Arial, sans-serif" font-size="12" fill="#333">52-55</text>
<rect x="118" y="240" width="10" height="16" fill="#28666e"/>
<text x="136" y="253" font-family="Arial, sans-serif" font-size="12" fill="#333">273</text>
<text x="16" y="303" font-family="Arial, sans-serif" font-size="12" fill="#333">56-59</text>
<rect x="118" y="288" width="4" height="16" fill="#28666e"/>
<text x="130" y="301" font-family="Arial, sans-serif" font-size="12" fill="#333">111</text>
<text x="16" y="183" font-family="Arial, sans-serif" font-size="12" fill="#333">&lt;28</text>
<rect x="118" y="168" width="42" height="16" fill="#28666e"/>
<text x="168" y="181" font-family="Arial, sans-serif" font-size="12" fill="#333">1,082</text>
<text x="16" y="279" font-family="Arial, sans-serif" font-size="12" fill="#333">60+</text>
<rect x="118" y="264" width="7" height="16" fill="#28666e"/>
<text x="133" y="277" font-family="Arial, sans-serif" font-size="12" fill="#333">189</text>
</svg>
