<svg xmlns="http://www.w3.org/2000/svg" width="773" height="990" viewBox="0 0 773 990">
<rect width="100%" height="100%" fill="#fff"/>
<text x="16" y="28" font-family="Arial, sans-serif" font-size="18" font-weight="700">cupsize_display</text>
<text x="16" y="327" font-family="Arial, sans-serif" font-size="12" fill="#333">AA</text>
<rect x="118" y="312" width="14" height="16" fill="#28666e"/>
<text x="140" y="325" font-family="Arial, sans-serif" font-size="12" fill="#333">169</text>
<text x="16" y="183" font-family="Arial, sans-serif" font-size="12" fill="#333">A</text>
<rect x="118" y="168" width="185" height="16" fill="#28666e"/>
<text x="311" y="181" font-family="Arial, sans-serif" font-size="12" fill="#333">2,134</text>
<text x="16" y="87" font-family="Arial, sans-serif" font-size="12" fill="#333">B</text>
<rect x="118" y="72" width="560" height="16" fill="#28666e"/>
<text x="686" y="85" font-family="Arial, sans-serif" font-size="12" fill="#333">6,443</text>
<text x="16" y="111" font-family="Arial, sans-serif" font-size="12" fill="#333">C</text>
<rect x="118" y="96" width="519" height="16" fill="#28666e"/>
<text x="645" y="109" font-family="Arial, sans-serif" font-size="12" fill="#333">5,979</text>
<text x="16" y="135" font-family="Arial, sans-serif" font-size="12" fill="#333">D</text>
<rect x="118" y="120" width="437" height="16" fill="#28666e"/>
<text x="563" y="133" font-family="Arial, sans-serif" font-size="12" fill="#333">5,039</text>
<text x="16" y="159" font-family="Arial, sans-serif" font-size="12" fill="#333">DD</text>
<rect x="118" y="144" width="407" height="16" fill="#28666e"/>
<text x="533" y="157" font-family="Arial, sans-serif" font-size="12" fill="#333">4,685</text>
<text x="16" y="207" font-family="Arial, sans-serif" font-size="12" fill="#333">DDD</text>
<rect x="118" y="192" width="171" height="16" fill="#28666e"/>
<text x="297" y="205" font-family="Arial, sans-serif" font-size="12" fill="#333">1,970</text>
<text x="16" y="303" font-family="Arial, sans-serif" font-size="12" fill="#333">E</text>
<rect x="118" y="288" width="20" height="16" fill="#28666e"/>
<text x="146" y="301" font-family="Arial, sans-serif" font-size="12" fill="#333">237</text>
<text x="16" y="255" font-family="Arial, sans-serif" font-size="12" fill="#333">F</text>
<rect x="118" y="240" width="30" height="16" fill="#28666e"/>
<text x="156" y="253" font-family="Arial, sans-serif" font-size="12" fill="#333">355</text>
<text x="16" y="231" font-family="Arial, sans-serif" font-size="12" fill="#333">G</text>
<rect x="118" y="216" width="55" height="16" fill="#28666e"/>
<text x="181" y="229" font-family="Arial, sans-serif" font-size="12" fill="#333">644</text>
<text x="16" y="279" font-family="Arial, sans-serif" font-size="12" fill="#333">H</text>
<rect x="118" y="264" width="26" height="16" fill="#28666e"/>
<text x="152" y="277" font-family="Arial, sans-serif" font-size="12" fill="#333">302</text>
<text x="16" y="351" font-family="Arial, sans-serif" font-size="12" fill="#333">I</text>
<rect x="118" y="336" width="10" height="16" fill="#28666e"/>
<text x="136" y="349" font-family="Arial, sans-serif" font-size="12" fill="#333">119</text>
<text x="16" y="399" font-family="Arial, sans-serif" font-size="12" fill="#333">J</text>
<rect x="118" y="384" width="4" height="16" fill="#28666e"/>
<text x="130" y="397" font-family="Arial, sans-serif" font-size="12" fill="#333">53</text>
<text x="16" y="471" font-family="Arial, sans-serif" font-size="12" fill="#333">K</text>
<rect x="118" y="456" width="1" height="16" fill="#28666e"/>
<text x="127" y="469" font-family="Arial, sans-serif" font-size="12" fill="#333">20</text>
<text x="16" y="759" font-family="Arial, sans-serif" font-size="12" fill="#333">MEDIUMLARGEBRA</text>
<rect x="118" y="744" width="0" height="16" fill="#28666e"/>
<text x="126" y="757" font-family="Arial, sans-serif" font-size="12" fill="#333">3</text>
<text x="16" y="783" font-family="Arial, sans-serif" font-size="12" fill="#333">DDE</text>
<rect x="118" y="768" width="0" height="16" fill="#28666e"/>
<text x="126" y="781" font-family="Arial, sans-serif" font-size="12" fill="#333">2</text>
<text x="16" y="807" font-family="Arial, sans-serif" font-size="12" fill="#333">IMNOTTOSURE</text>
<rect x="118" y="792" width="0" height="16" fill="#28666e"/>
<text x="126" y="805" font-family="Arial, sans-serif" font-size="12" fill="#333">2</text>
<text x="16" y="831" font-family="Arial, sans-serif" font-size="12" fill="#333">TBHUNKNOWNATM</text>
<rect x="118" y="816" width="0" height="16" fill="#28666e"/>
<text x="126" y="829" font-family="Arial, sans-serif" font-size="12" fill="#333">2</text>
<text x="16" y="951" font-family="Arial, sans-serif" font-size="12" fill="#333">IN</text>
<rect x="118" y="936" width="0" height="16" fill="#28666e"/>
<text x="126" y="949" font-family="Arial, sans-serif" font-size="12" fill="#333">1</text>
<text x="16" y="879" font-family="Arial, sans-serif" font-size="12" fill="#333">AAA</text>
<rect x="118" y="864" width="0" height="16" fill="#28666e"/>
<text x="126" y="877" font-family="Arial, sans-serif" font-size="12" fill="#333">1</text>
<text x="16" y="903" font-family="Arial, sans-serif" font-size="12" fill="#333">CCUP</text>
<rect x="118" y="888" width="0" height="16" fill="#28666e"/>
<text x="126" y="901" font-family="Arial, sans-serif" font-size="12" fill="#333">1</text>
<text x="16" y="927" font-family="Arial, sans-serif" font-size="12" fill="#333">NOIDEA</text>
<rect x="118" y="912" width="0" height="16" fill="#28666e"/>
<text x="126" y="925" font-family="Arial, sans-serif" font-size="12" fill="#333">1</text>
<text x="16" y="735" font-family="Arial, sans-serif" font-size="12" fill="#333">SMALL</text>
<rect x="118" y="720" width="0" height="16" fill="#28666e"/>
<text x="126" y="733" font-family="Arial, sans-serif" font-size="12" fill="#333">3</text>
<text x="16" y="855" font-family="Arial, sans-serif" font-size="12" fill="#333">DONTKNOW</text>
<rect x="118" y="840" width="0" height="16" fill="#28666e"/>
<text x="126" y="853" font-family="Arial, sans-serif" font-size="12" fill="#333">2</text>
<text x="16" y="711" font-family="Arial, sans-serif" font-size="12" fill="#333">BREASTFEEDING</text>
<rect x="118" y="696" width="0" height="16" fill="#28666e"/>
<text x="126" y="709" font-family="Arial, sans-serif" font-size="12" fill="#333">3</text>
<text x="16" y="543" font-family="Arial, sans-serif" font-size="12" fill="#333">NA</text>
<rect x="118" y="528" width="1" height="16" fill="#28666e"/>
<text x="127" y="541" font-family="Arial, sans-serif" font-size="12" fill="#333">16</text>
<text x="16" y="663" font-family="Arial, sans-serif" font-size="12" fill="#333">NOTSURE</text>
<rect x="118" y="648" width="0" height="16" fill="#28666e"/>
<text x="126" y="661" font-family="Arial, sans-serif" font-size="12" fill="#333">5</text>
<text x="16" y="639" font-family="Arial, sans-serif" font-size="12" fill="#333">BB</text>
<rect x="118" y="624" width="0" height="16" fill="#28666e"/>
<text x="126" y="637" font-family="Arial, sans-serif" font-size="12" fill="#333">6</text>
<text x="16" y="615" font-family="Arial, sans-serif" font-size="12" fill="#333">DDDE</text>
<rect x="118" y="600" width="0" height="16" fill="#28666e"/>
<text x="126" y="613" font-family="Arial, sans-serif" font-size="12" fill="#333">10</text>
<text x="16" y="591" font-family="Arial, sans-serif" font-size="12" fill="#333">INCHES</text>
<rect x="118" y="576" width="1" height="16" fill="#28666e"/>
<text x="127" y="589" font-family="Arial, sans-serif" font-size="12" fill="#333">12</text>
<text x="16" y="567" font-family="Arial, sans-serif" font-size="12" fill="#333">DDDF</text>
<rect x="118" y="552" width="1" height="16" fill="#28666e"/>
<text x="127" y="565" font-family="Arial, sans-serif" font-size="12" fill="#333">13</text>
<text x="16" y="975" font-family="Arial, sans-serif" font-size="12" fill="#333">MEDIUM</text>
<rect x="118" y="960" width="0" height="16" fill="#28666e"/>
<text x="126" y="973" font-family="Arial, sans-serif" font-size="12" fill="#333">1</text>
<text x="16" y="519" font-family="Arial, sans-serif" font-size="12" fill="#333">ACUP</text>
<rect x="118" y="504" width="1" height="16" fill="#28666e"/>
<text x="127" y="517" font-family="Arial, sans-serif" font-size="12" fill="#333">19</text>
<text x="16" y="495" font-family="Arial, sans-serif" font-size="12" fill="#333">S</text>
<rect x="118" y="480" width="1" height="16" fill="#28666e"/>
<text x="127" y="493" font-family="Arial, sans-serif" font-size="12" fill="#333">19</text>
<text x="16" y="447" font-family="Arial, sans-serif" font-size="12" fill="#333">GORABOVE</text>
<rect x="118" y="432" width="2" height="16" fill="#28666e"/>
<text x="128" y="445" font-family="Arial, sans-serif" font-size="12" fill="#333">26</text>
<text x="16" y="423" font-family="Arial, sans-serif" font-size="12" fill="#333">GG</text>
<rect x="118" y="408" width="3" height="16" fill="#28666e"/>
<text x="129" y="421" font-family="Arial, sans-serif" font-size="12" fill="#333">38</text>
<text x="16" y="375" font-family="Arial, sans-serif" font-size="12" fill="#333">CM</text>
<rect x="118" y="360" width="5" height="16" fill="#28666e"/>
<text x="131" y="373" font-family="Arial, sans-serif" font-size="12" fill="#333">69</text>
<text x="16" y="687" font-family="Arial, sans-serif" font-size="12" fill="#333">EE</text>
<rect x="118" y="672" width="0" height="16" fill="#28666e"/>
<text x="126" y="685" font-family="Arial, sans-serif" font-size="12" fill="#333">4</text>
<text x="16" y="999" font-family="Arial, sans-serif" font-size="12" fill="#333">QUOT</text>
<rect x="118" y="984" width="0" height="16" fill="#28666e"/>
<text x="126" y="997" font-family="Arial, sans-serif" font-size="12" fill="#333">1</text>
</svg>
