<svg xmlns="http://www.w3.org/2000/svg" width="773" height="510" viewBox="0 0 773 510">
<rect width="100%" height="100%" fill="#fff"/>
<text x="16" y="28" font-family="Arial, sans-serif" font-size="18" font-weight="700">height_in_display</text>
<text x="16" y="327" font-family="Arial, sans-serif" font-size="12" fill="#333">48-49</text>
<rect x="118" y="312" width="5" height="16" fill="#28666e"/>
<text x="131" y="325" font-family="Arial, sans-serif" font-size="12" fill="#333">596</text>
<text x="16" y="495" font-family="Arial, sans-serif" font-size="12" fill="#333">50-51</text>
<rect x="118" y="480" width="0" height="16" fill="#28666e"/>
<text x="126" y="493" font-family="Arial, sans-serif" font-size="12" fill="#333">54</text>
<text x="16" y="423" font-family="Arial, sans-serif" font-size="12" fill="#333">52-53</text>
<rect x="118" y="408" width="2" height="16" fill="#28666e"/>
<text x="128" y="421" font-family="Arial, sans-serif" font-size="12" fill="#333">242</text>
<text x="16" y="399" font-family="Arial, sans-serif" font-size="12" fill="#333">54-55</text>
<rect x="118" y="384" width="2" height="16" fill="#28666e"/>
<text x="128" y="397" font-family="Arial, sans-serif" font-size="12" fill="#333">255</text>
<text x="16" y="279" font-family="Arial, sans-serif" font-size="12" fill="#333">56-57</text>
<rect x="118" y="264" width="14" height="16" fill="#28666e"/>
<text x="140" y="277" font-family="Arial, sans-serif" font-size="12" fill="#333">1,495</text>
<text x="16" y="231" font-family="Arial, sans-serif" font-size="12" fill="#333">58-59</text>
<rect x="118" y="216" width="97" height="16" fill="#28666e"/>
<text x="223" y="229" font-family="Arial, sans-serif" font-size="12" fill="#333">10,074</text>
<text x="16" y="135" font-family="Arial, sans-serif" font-size="12" fill="#333">60-61</text>
<rect x="118" y="120" width="342" height="16" fill="#28666e"/>
<text x="468" y="133" font-family="Arial, sans-serif" font-size="12" fill="#333">35,445</text>
<text x="16" y="63" font-family="Arial, sans-serif" font-size="12" fill="#333">62-63</text>
<rect x="118" y="48" width="560" height="16" fill="#28666e"/>
<text x="686" y="61" font-family="Arial, sans-serif" font-size="12" fill="#333">58,025</text>
<text x="16" y="87" font-family="Arial, sans-serif" font-size="12" fill="#333">64-65</text>
<rect x="118" y="72" width="512" height="16" fill="#28666e"/>
<text x="638" y="85" font-family="Arial, sans-serif" font-size="12" fill="#333">53,052</text>
<text x="16" y="111" font-family="Arial, sans-serif" font-size="12" fill="#333">66-67</text>
<rect x="118" y="96" width="370" height="16" fill="#28666e"/>
<text x="496" y="109" font-family="Arial, sans-serif" font-size="12" fill="#333">38,379</text>
<text x="16" y="183" font-family="Arial, sans-serif" font-size="12" fill="#333">68-69</text>
<rect x="118" y="168" width="237" height="16" fill="#28666e"/>
<text x="363" y="181" font-family="Arial, sans-serif" font-size="12" fill="#333">24,623</text>
<text x="16" y="207" font-family="Arial, sans-serif" font-size="12" fill="#333">70-71</text>
<rect x="118" y="192" width="103" height="16" fill="#28666e"/>
<text x="229" y="205" font-family="Arial, sans-serif" font-size="12" fill="#333">10,754</text>
<text x="16" y="255" font-family="Arial, sans-serif" font-size="12" fill="#333">72-73</text>
<rect x="118" y="240" width="43" height="16" fill="#28666e"/>
<text x="169" y="253" font-family="Arial, sans-serif" font-size="12" fill="#333">4,538</text>
<text x="16" y="303" font-family="Arial, sans-serif" font-size="12" fill="#333">74-75</text>
<rect x="118" y="288" width="13" height="16" fill="#28666e"/>
<text x="139" y="301" font-family="Arial, sans-serif" font-size="12" fill="#333">1,385</text>
<text x="16" y="351" font-family="Arial, sans-serif" font-size="12" fill="#333">76-77</text>
<rect x="118" y="336" width="3" height="16" fill="#28666e"/>
<text x="129" y="349" font-family="Arial, sans-serif" font-size="12" fill="#333">356</text>
<text x="16" y="471" font-family="Arial, sans-serif" font-size="12" fill="#333">78-79</text>
<rect x="118" y="456" width="0" height="16" fill="#28666e"/>
<text x="126" y="469" font-family="Arial, sans-serif" font-size="12" fill="#333">102</text>
<text x="16" y="519" font-family="Arial, sans-serif" font-size="12" fill="#333">80-81</text>
<rect x="118" y="504" width="0" height="16" fill="#28666e"/>
<text x="126" y="517" font-family="Arial, sans-serif" font-size="12" fill="#333">22</text>
<text x="16" y="447" font-family="Arial, sans-serif" font-size="12" fill="#333">84+</text>
<rect x="118" y="432" width="1" height="16" fill="#28666e"/>
<text x="127" y="445" font-family="Arial, sans-serif" font-size="12" fill="#333">182</text>
<text x="16" y="375" font-family="Arial, sans-serif" font-size="12" fill="#333">&lt;48</text>
<rect x="118" y="360" width="3" height="16" fill="#28666e"/>
<text x="129" y="373" font-family="Arial, sans-serif" font-size="12" fill="#333">315</text>
</svg>
