<svg xmlns="http://www.w3.org/2000/svg" width="773" height="342" viewBox="0 0 773 342">
<rect width="100%" height="100%" fill="#fff"/>
<text x="16" y="28" font-family="Arial, sans-serif" font-size="18" font-weight="700">hips_in_display</text>
<text x="16" y="255" font-family="Arial, sans-serif" font-size="12" fill="#333">28-31</text>
<rect x="118" y="240" width="42" height="16" fill="#28666e"/>
<text x="168" y="253" font-family="Arial, sans-serif" font-size="12" fill="#333">164</text>
<text x="16" y="183" font-family="Arial, sans-serif" font-size="12" fill="#333">32-35</text>
<rect x="118" y="168" width="260" height="16" fill="#28666e"/>
<text x="386" y="181" font-family="Arial, sans-serif" font-size="12" fill="#333">996</text>
<text x="16" y="87" font-family="Arial, sans-serif" font-size="12" fill="#333">36-39</text>
<rect x="118" y="72" width="560" height="16" fill="#28666e"/>
<text x="686" y="85" font-family="Arial, sans-serif" font-size="12" fill="#333">2,140</text>
<text x="16" y="111" font-family="Arial, sans-serif" font-size="12" fill="#333">40-43</text>
<rect x="118" y="96" width="535" height="16" fill="#28666e"/>
<text x="661" y="109" font-family="Arial, sans-serif" font-size="12" fill="#333">2,048</text>
<text x="16" y="135" font-family="Arial, sans-serif" font-size="12" fill="#333">44-47</text>
<rect x="118" y="120" width="401" height="16" fill="#28666e"/>
<text x="527" y="133" font-family="Arial, sans-serif" font-size="12" fill="#333">1,533</text>
<text x="16" y="159" font-family="Arial, sans-serif" font-size="12" fill="#333">48-51</text>
<rect x="118" y="144" width="277" height="16" fill="#28666e"/>
<text x="403" y="157" font-family="Arial, sans-serif" font-size="12" fill="#333">1,059</text>
<text x="16" y="207" font-family="Arial, sans-serif" font-size="12" fill="#333">52-55</text>
<rect x="118" y="192" width="102" height="16" fill="#28666e"/>
<text x="228" y="205" font-family="Arial, sans-serif" font-size="12" fill="#333">390</text>
<text x="16" y="231" font-family="Arial, sans-serif" font-size="12" fill="#333">56-59</text>
<rect x="118" y="216" width="68" height="16" fill="#28666e"/>
<text x="194" y="229" font-family="Arial, sans-serif" font-size="12" fill="#333">261</text>
<text x="16" y="327" font-family="Arial, sans-serif" font-size="12" fill="#333">60-63</text>
<rect x="118" y="312" width="36" height="16" fill="#28666e"/>
<text x="162" y="325" font-family="Arial, sans-serif" font-size="12" fill="#333">140</text>
<text x="16" y="303" font-family="Arial, sans-serif" font-size="12" fill="#333">64-67</text>
<rect x="118" y="288" width="40" height="16" fill="#28666e"/>
<text x="166" y="301" font-family="Arial, sans-serif" font-size="12" fill="#333">154</text>
<text x="16" y="279" font-family="Arial, sans-serif" font-size="12" fill="#333">&lt;28</text>
<rect x="118" y="264" width="40" height="16" fill="#28666e"/>
<text x="166" y="277" font-family="Arial, sans-serif" font-size="12" fill="#333">156</text>
<text x="16" y="351" font-family="Arial, sans-serif" font-size="12" fill="#333">68+</text>
<rect x="118" y="336" width="18" height="16" fill="#28666e"/>
<text x="144" y="349" font-family="Arial, sans-serif" font-size="12" fill="#333">69</text>
</svg>
