<svg xmlns="http://www.w3.org/2000/svg" width="773" height="1014" viewBox="0 0 773 1014">
<rect width="100%" height="100%" fill="#fff"/>
<text x="16" y="28" font-family="Arial, sans-serif" font-size="18" font-weight="700">size_display</text>
<text x="16" y="63" font-family="Arial, sans-serif" font-size="12" fill="#333">SMALL</text>
<rect x="118" y="48" width="560" height="16" fill="#28666e"/>
<text x="686" y="61" font-family="Arial, sans-serif" font-size="12" fill="#333">30,922</text>
<text x="16" y="87" font-family="Arial, sans-serif" font-size="12" fill="#333">MEDIUM</text>
<rect x="118" y="72" width="512" height="16" fill="#28666e"/>
<text x="638" y="85" font-family="Arial, sans-serif" font-size="12" fill="#333">28,326</text>
<text x="16" y="111" font-family="Arial, sans-serif" font-size="12" fill="#333">XS</text>
<rect x="118" y="96" width="459" height="16" fill="#28666e"/>
<text x="585" y="109" font-family="Arial, sans-serif" font-size="12" fill="#333">25,383</text>
<text x="16" y="135" font-family="Arial, sans-serif" font-size="12" fill="#333">S</text>
<rect x="118" y="120" width="406" height="16" fill="#28666e"/>
<text x="532" y="133" font-family="Arial, sans-serif" font-size="12" fill="#333">22,427</text>
<text x="16" y="159" font-family="Arial, sans-serif" font-size="12" fill="#333">M</text>
<rect x="118" y="144" width="351" height="16" fill="#28666e"/>
<text x="477" y="157" font-family="Arial, sans-serif" font-size="12" fill="#333">19,388</text>
<text x="16" y="183" font-family="Arial, sans-serif" font-size="12" fill="#333">LARGE</text>
<rect x="118" y="168" width="339" height="16" fill="#28666e"/>
<text x="465" y="181" font-family="Arial, sans-serif" font-size="12" fill="#333">18,731</text>
<text x="16" y="207" font-family="Arial, sans-serif" font-size="12" fill="#333">L</text>
<rect x="118" y="192" width="182" height="16" fill="#28666e"/>
<text x="308" y="205" font-family="Arial, sans-serif" font-size="12" fill="#333">10,101</text>
<text x="16" y="231" font-family="Arial, sans-serif" font-size="12" fill="#333">XXS</text>
<rect x="118" y="216" width="163" height="16" fill="#28666e"/>
<text x="289" y="229" font-family="Arial, sans-serif" font-size="12" fill="#333">9,028</text>
<text x="16" y="255" font-family="Arial, sans-serif" font-size="12" fill="#333">X-LARGE</text>
<rect x="118" y="240" width="153" height="16" fill="#28666e"/>
<text x="279" y="253" font-family="Arial, sans-serif" font-size="12" fill="#333">8,481</text>
<text x="16" y="279" font-family="Arial, sans-serif" font-size="12" fill="#333">XL</text>
<rect x="118" y="264" width="117" height="16" fill="#28666e"/>
<text x="243" y="277" font-family="Arial, sans-serif" font-size="12" fill="#333">6,483</text>
<text x="16" y="303" font-family="Arial, sans-serif" font-size="12" fill="#333">4</text>
<rect x="118" y="288" width="95" height="16" fill="#28666e"/>
<text x="221" y="301" font-family="Arial, sans-serif" font-size="12" fill="#333">5,291</text>
<text x="16" y="327" font-family="Arial, sans-serif" font-size="12" fill="#333">6</text>
<rect x="118" y="312" width="89" height="16" fill="#28666e"/>
<text x="215" y="325" font-family="Arial, sans-serif" font-size="12" fill="#333">4,966</text>
<text x="16" y="351" font-family="Arial, sans-serif" font-size="12" fill="#333">8</text>
<rect x="118" y="336" width="81" height="16" fill="#28666e"/>
<text x="207" y="349" font-family="Arial, sans-serif" font-size="12" fill="#333">4,521</text>
<text x="16" y="375" font-family="Arial, sans-serif" font-size="12" fill="#333">2</text>
<rect x="118" y="360" width="78" height="16" fill="#28666e"/>
<text x="204" y="373" font-family="Arial, sans-serif" font-size="12" fill="#333">4,327</text>
<text x="16" y="399" font-family="Arial, sans-serif" font-size="12" fill="#333">10</text>
<rect x="118" y="384" width="59" height="16" fill="#28666e"/>
<text x="185" y="397" font-family="Arial, sans-serif" font-size="12" fill="#333">3,291</text>
<text x="16" y="423" font-family="Arial, sans-serif" font-size="12" fill="#333">XX-LARGE</text>
<rect x="118" y="408" width="59" height="16" fill="#28666e"/>
<text x="185" y="421" font-family="Arial, sans-serif" font-size="12" fill="#333">3,275</text>
<text x="16" y="447" font-family="Arial, sans-serif" font-size="12" fill="#333">12</text>
<rect x="118" y="432" width="59" height="16" fill="#28666e"/>
<text x="185" y="445" font-family="Arial, sans-serif" font-size="12" fill="#333">3,258</text>
<text x="16" y="471" font-family="Arial, sans-serif" font-size="12" fill="#333">X-SMALL</text>
<rect x="118" y="456" width="53" height="16" fill="#28666e"/>
<text x="179" y="469" font-family="Arial, sans-serif" font-size="12" fill="#333">2,939</text>
<text x="16" y="495" font-family="Arial, sans-serif" font-size="12" fill="#333">0</text>
<rect x="118" y="480" width="51" height="16" fill="#28666e"/>
<text x="177" y="493" font-family="Arial, sans-serif" font-size="12" fill="#333">2,843</text>
<text x="16" y="519" font-family="Arial, sans-serif" font-size="12" fill="#333">00</text>
<rect x="118" y="504" width="48" height="16" fill="#28666e"/>
<text x="174" y="517" font-family="Arial, sans-serif" font-size="12" fill="#333">2,658</text>
<text x="16" y="543" font-family="Arial, sans-serif" font-size="12" fill="#333">14</text>
<rect x="118" y="528" width="43" height="16" fill="#28666e"/>
<text x="169" y="541" font-family="Arial, sans-serif" font-size="12" fill="#333">2,413</text>
<text x="16" y="567" font-family="Arial, sans-serif" font-size="12" fill="#333">000</text>
<rect x="118" y="552" width="42" height="16" fill="#28666e"/>
<text x="168" y="565" font-family="Arial, sans-serif" font-size="12" fill="#333">2,325</text>
<text x="16" y="591" font-family="Arial, sans-serif" font-size="12" fill="#333">16</text>
<rect x="118" y="576" width="36" height="16" fill="#28666e"/>
<text x="162" y="589" font-family="Arial, sans-serif" font-size="12" fill="#333">1,991</text>
<text x="16" y="615" font-family="Arial, sans-serif" font-size="12" fill="#333">XXL</text>
<rect x="118" y="600" width="31" height="16" fill="#28666e"/>
<text x="157" y="613" font-family="Arial, sans-serif" font-size="12" fill="#333">1,713</text>
<text x="16" y="639" font-family="Arial, sans-serif" font-size="12" fill="#333">18</text>
<rect x="118" y="624" width="26" height="16" fill="#28666e"/>
<text x="152" y="637" font-family="Arial, sans-serif" font-size="12" fill="#333">1,455</text>
<text x="16" y="663" font-family="Arial, sans-serif" font-size="12" fill="#333">18-20/2X</text>
<rect x="118" y="648" width="18" height="16" fill="#28666e"/>
<text x="144" y="661" font-family="Arial, sans-serif" font-size="12" fill="#333">1,029</text>
<text x="16" y="687" font-family="Arial, sans-serif" font-size="12" fill="#333">14-16/1X</text>
<rect x="118" y="672" width="16" height="16" fill="#28666e"/>
<text x="142" y="685" font-family="Arial, sans-serif" font-size="12" fill="#333">919</text>
<text x="16" y="711" font-family="Arial, sans-serif" font-size="12" fill="#333">28</text>
<rect x="118" y="696" width="16" height="16" fill="#28666e"/>
<text x="142" y="709" font-family="Arial, sans-serif" font-size="12" fill="#333">898</text>
<text x="16" y="735" font-family="Arial, sans-serif" font-size="12" fill="#333">22-24/3X</text>
<rect x="118" y="720" width="14" height="16" fill="#28666e"/>
<text x="140" y="733" font-family="Arial, sans-serif" font-size="12" fill="#333">811</text>
<text x="16" y="759" font-family="Arial, sans-serif" font-size="12" fill="#333">26</text>
<rect x="118" y="744" width="13" height="16" fill="#28666e"/>
<text x="139" y="757" font-family="Arial, sans-serif" font-size="12" fill="#333">766</text>
<text x="16" y="783" font-family="Arial, sans-serif" font-size="12" fill="#333">30</text>
<rect x="118" y="768" width="13" height="16" fill="#28666e"/>
<text x="139" y="781" font-family="Arial, sans-serif" font-size="12" fill="#333">733</text>
<text x="16" y="807" font-family="Arial, sans-serif" font-size="12" fill="#333">27</text>
<rect x="118" y="792" width="12" height="16" fill="#28666e"/>
<text x="138" y="805" font-family="Arial, sans-serif" font-size="12" fill="#333">683</text>
<text x="16" y="831" font-family="Arial, sans-serif" font-size="12" fill="#333">3X-LARGE</text>
<rect x="118" y="816" width="12" height="16" fill="#28666e"/>
<text x="138" y="829" font-family="Arial, sans-serif" font-size="12" fill="#333">681</text>
<text x="16" y="855" font-family="Arial, sans-serif" font-size="12" fill="#333">29</text>
<rect x="118" y="840" width="11" height="16" fill="#28666e"/>
<text x="137" y="853" font-family="Arial, sans-serif" font-size="12" fill="#333">643</text>
<text x="16" y="879" font-family="Arial, sans-serif" font-size="12" fill="#333">20</text>
<rect x="118" y="864" width="11" height="16" fill="#28666e"/>
<text x="137" y="877" font-family="Arial, sans-serif" font-size="12" fill="#333">643</text>
<text x="16" y="903" font-family="Arial, sans-serif" font-size="12" fill="#333">24</text>
<rect x="118" y="888" width="10" height="16" fill="#28666e"/>
<text x="136" y="901" font-family="Arial, sans-serif" font-size="12" fill="#333">604</text>
<text x="16" y="927" font-family="Arial, sans-serif" font-size="12" fill="#333">EXTRA</text>
<rect x="118" y="912" width="10" height="16" fill="#28666e"/>
<text x="136" y="925" font-family="Arial, sans-serif" font-size="12" fill="#333">584</text>
<text x="16" y="951" font-family="Arial, sans-serif" font-size="12" fill="#333">ONE</text>
<rect x="118" y="936" width="10" height="16" fill="#28666e"/>
<text x="136" y="949" font-family="Arial, sans-serif" font-size="12" fill="#333">565</text>
<text x="16" y="975" font-family="Arial, sans-serif" font-size="12" fill="#333">12/L</text>
<rect x="118" y="960" width="9" height="16" fill="#28666e"/>
<text x="135" y="973" font-family="Arial, sans-serif" font-size="12" fill="#333">539</text>
<text x="16" y="999" font-family="Arial, sans-serif" font-size="12" fill="#333">32</text>
<rect x="118" y="984" width="9" height="16" fill="#28666e"/>
<text x="135" y="997" font-family="Arial, sans-serif" font-size="12" fill="#333">537</text>
</svg>
