<svg xmlns="http://www.w3.org/2000/svg" width="773" height="342" viewBox="0 0 773 342">
<rect width="100%" height="100%" fill="#fff"/>
<text x="16" y="28" font-family="Arial, sans-serif" font-size="18" font-weight="700">waist_in</text>
<text x="16" y="303" font-family="Arial, sans-serif" font-size="12" fill="#333">20-23</text>
<rect x="118" y="288" width="26" height="16" fill="#28666e"/>
<text x="152" y="301" font-family="Arial, sans-serif" font-size="12" fill="#333">140</text>
<text x="16" y="111" font-family="Arial, sans-serif" font-size="12" fill="#333">24-27</text>
<rect x="118" y="96" width="375" height="16" fill="#28666e"/>
<text x="501" y="109" font-family="Arial, sans-serif" font-size="12" fill="#333">1,975</text>
<text x="16" y="87" font-family="Arial, sans-serif" font-size="12" fill="#333">28-31</text>
<rect x="118" y="72" width="560" height="16" fill="#28666e"/>
<text x="686" y="85" font-family="Arial, sans-serif" font-size="12" fill="#333">2,945</text>
<text x="16" y="135" font-family="Arial, sans-serif" font-size="12" fill="#333">32-35</text>
<rect x="118" y="120" width="343" height="16" fill="#28666e"/>
<text x="469" y="133" font-family="Arial, sans-serif" font-size="12" fill="#333">1,808</text>
<text x="16" y="159" font-family="Arial, sans-serif" font-size="12" fill="#333">36-39</text>
<rect x="118" y="144" width="238" height="16" fill="#28666e"/>
<text x="364" y="157" font-family="Arial, sans-serif" font-size="12" fill="#333">1,252</text>
<text x="16" y="183" font-family="Arial, sans-serif" font-size="12" fill="#333">40-43</text>
<rect x="118" y="168" width="151" height="16" fill="#28666e"/>
<text x="277" y="181" font-family="Arial, sans-serif" font-size="12" fill="#333">796</text>
<text x="16" y="207" font-family="Arial, sans-serif" font-size="12" fill="#333">44-47</text>
<rect x="118" y="192" width="107" height="16" fill="#28666e"/>
<text x="233" y="205" font-family="Arial, sans-serif" font-size="12" fill="#333">564</text>
<text x="16" y="231" font-family="Arial, sans-serif" font-size="12" fill="#333">48-51</text>
<rect x="118" y="216" width="63" height="16" fill="#28666e"/>
<text x="189" y="229" font-family="Arial, sans-serif" font-size="12" fill="#333">335</text>
<text x="16" y="255" font-family="Arial, sans-serif" font-size="12" fill="#333">52-55</text>
<rect x="118" y="240" width="32" height="16" fill="#28666e"/>
<text x="158" y="253" font-family="Arial, sans-serif" font-size="12" fill="#333">170</text>
<text x="16" y="279" font-family="Arial, sans-serif" font-size="12" fill="#333">56-59</text>
<rect x="118" y="264" width="31" height="16" fill="#28666e"/>
<text x="157" y="277" font-family="Arial, sans-serif" font-size="12" fill="#333">166</text>
<text x="16" y="327" font-family="Arial, sans-serif" font-size="12" fill="#333">60+</text>
<rect x="118" y="312" width="26" height="16" fill="#28666e"/>
<text x="152" y="325" font-family="Arial, sans-serif" font-size="12" fill="#333">138</text>
<text x="16" y="351" font-family="Arial, sans-serif" font-size="12" fill="#333">&lt;20</text>
<rect x="118" y="336" width="4" height="16" fill="#28666e"/>
<text x="130" y="349" font-family="Arial, sans-serif" font-size="12" fill="#333">23</text>
</svg>
