<svg xmlns="http://www.w3.org/2000/svg" width="773" height="390" viewBox="0 0 773 390">
<rect width="100%" height="100%" fill="#fff"/>
<text x="16" y="28" font-family="Arial, sans-serif" font-size="18" font-weight="700">weight_lbs_display</text>
<text x="16" y="303" font-family="Arial, sans-serif" font-size="12" fill="#333">80-99</text>
<rect x="118" y="288" width="17" height="16" fill="#28666e"/>
<text x="143" y="301" font-family="Arial, sans-serif" font-size="12" fill="#333">849</text>
<text x="16" y="87" font-family="Arial, sans-serif" font-size="12" fill="#333">100-119</text>
<rect x="118" y="72" width="560" height="16" fill="#28666e"/>
<text x="686" y="85" font-family="Arial, sans-serif" font-size="12" fill="#333">26,420</text>
<text x="16" y="111" font-family="Arial, sans-serif" font-size="12" fill="#333">120-139</text>
<rect x="118" y="96" width="432" height="16" fill="#28666e"/>
<text x="558" y="109" font-family="Arial, sans-serif" font-size="12" fill="#333">20,423</text>
<text x="16" y="135" font-family="Arial, sans-serif" font-size="12" fill="#333">140-159</text>
<rect x="118" y="120" width="377" height="16" fill="#28666e"/>
<text x="503" y="133" font-family="Arial, sans-serif" font-size="12" fill="#333">17,823</text>
<text x="16" y="159" font-family="Arial, sans-serif" font-size="12" fill="#333">160-179</text>
<rect x="118" y="144" width="250" height="16" fill="#28666e"/>
<text x="376" y="157" font-family="Arial, sans-serif" font-size="12" fill="#333">11,805</text>
<text x="16" y="183" font-family="Arial, sans-serif" font-size="12" fill="#333">180-199</text>
<rect x="118" y="168" width="136" height="16" fill="#28666e"/>
<text x="262" y="181" font-family="Arial, sans-serif" font-size="12" fill="#333">6,456</text>
<text x="16" y="207" font-family="Arial, sans-serif" font-size="12" fill="#333">200-219</text>
<rect x="118" y="192" width="77" height="16" fill="#28666e"/>
<text x="203" y="205" font-family="Arial, sans-serif" font-size="12" fill="#333">3,634</text>
<text x="16" y="231" font-family="Arial, sans-serif" font-size="12" fill="#333">220-239</text>
<rect x="118" y="216" width="41" height="16" fill="#28666e"/>
<text x="167" y="229" font-family="Arial, sans-serif" font-size="12" fill="#333">1,956</text>
<text x="16" y="255" font-family="Arial, sans-serif" font-size="12" fill="#333">240-259</text>
<rect x="118" y="240" width="39" height="16" fill="#28666e"/>
<text x="165" y="253" font-family="Arial, sans-serif" font-size="12" fill="#333">1,852</text>
<text x="16" y="351" font-family="Arial, sans-serif" font-size="12" fill="#333">260-279</text>
<rect x="118" y="336" width="17" height="16" fill="#28666e"/>
<text x="143" y="349" font-family="Arial, sans-serif" font-size="12" fill="#333">820</text>
<text x="16" y="375" font-family="Arial, sans-serif" font-size="12" fill="#333">280-299</text>
<rect x="118" y="360" width="8" height="16" fill="#28666e"/>
<text x="134" y="373" font-family="Arial, sans-serif" font-size="12" fill="#333">403</text>
<text x="16" y="399" font-family="Arial, sans-serif" font-size="12" fill="#333">300-319</text>
<rect x="118" y="384" width="6" height="16" fill="#28666e"/>
<text x="132" y="397" font-family="Arial, sans-serif" font-size="12" fill="#333">293</text>
<text x="16" y="279" font-family="Arial, sans-serif" font-size="12" fill="#333">&lt;80</text>
<rect x="118" y="264" width="33" height="16" fill="#28666e"/>
<text x="159" y="277" font-family="Arial, sans-serif" font-size="12" fill="#333">1,558</text>
<text x="16" y="327" font-family="Arial, sans-serif" font-size="12" fill="#333">320+</text>
<rect x="118" y="312" width="17" height="16" fill="#28666e"/>
<text x="143" y="325" font-family="Arial, sans-serif" font-size="12" fill="#333">825</text>
</svg>
