<svg xmlns="http://www.w3.org/2000/svg" width="773" height="318" viewBox="0 0 773 318">
<rect width="100%" height="100%" fill="#fff"/>
<text x="16" y="28" font-family="Arial, sans-serif" font-size="18" font-weight="700">bra_band_in_display</text>
<text x="16" y="279" font-family="Arial, sans-serif" font-size="12" fill="#333">26-27</text>
<rect x="118" y="264" width="2" height="16" fill="#28666e"/>
<text x="128" y="277" font-family="Arial, sans-serif" font-size="12" fill="#333">1</text>
<text x="16" y="231" font-family="Arial, sans-serif" font-size="12" fill="#333">30-31</text>
<rect x="118" y="216" width="36" height="16" fill="#28666e"/>
<text x="162" y="229" font-family="Arial, sans-serif" font-size="12" fill="#333">16</text>
<text x="16" y="135" font-family="Arial, sans-serif" font-size="12" fill="#333">32-33</text>
<rect x="118" y="120" width="309" height="16" fill="#28666e"/>
<text x="435" y="133" font-family="Arial, sans-serif" font-size="12" fill="#333">137</text>
<text x="16" y="87" font-family="Arial, sans-serif" font-size="12" fill="#333">34-35</text>
<rect x="118" y="72" width="560" height="16" fill="#28666e"/>
<text x="686" y="85" font-family="Arial, sans-serif" font-size="12" fill="#333">248</text>
<text x="16" y="111" font-family="Arial, sans-serif" font-size="12" fill="#333">36-37</text>
<rect x="118" y="96" width="352" height="16" fill="#28666e"/>
<text x="478" y="109" font-family="Arial, sans-serif" font-size="12" fill="#333">156</text>
<text x="16" y="159" font-family="Arial, sans-serif" font-size="12" fill="#333">38-39</text>
<rect x="118" y="144" width="155" height="16" fill="#28666e"/>
<text x="281" y="157" font-family="Arial, sans-serif" font-size="12" fill="#333">69</text>
<text x="16" y="183" font-family="Arial, sans-serif" font-size="12" fill="#333">40-41</text>
<rect x="118" y="168" width="54" height="16" fill="#28666e"/>
<text x="180" y="181" font-family="Arial, sans-serif" font-size="12" fill="#333">24</text>
<text x="16" y="255" font-family="Arial, sans-serif" font-size="12" fill="#333">42-43</text>
<rect x="118" y="240" width="6" height="16" fill="#28666e"/>
<text x="132" y="253" font-family="Arial, sans-serif" font-size="12" fill="#333">3</text>
<text x="16" y="327" font-family="Arial, sans-serif" font-size="12" fill="#333">44-45</text>
<rect x="118" y="312" width="2" height="16" fill="#28666e"/>
<text x="128" y="325" font-family="Arial, sans-serif" font-size="12" fill="#333">1</text>
<text x="16" y="207" font-family="Arial, sans-serif" font-size="12" fill="#333">&lt;26</text>
<rect x="118" y="192" width="54" height="16" fill="#28666e"/>
<text x="180" y="205" font-family="Arial, sans-serif" font-size="12" fill="#333">24</text>
<text x="16" y="303" font-family="Arial, sans-serif" font-size="12" fill="#333">50+</text>
<rect x="118" y="288" width="2" height="16" fill="#28666e"/>
<text x="128" y="301" font-family="Arial, sans-serif" font-size="12" fill="#333">1</text>
</svg>
