<svg xmlns="http://www.w3.org/2000/svg" width="773" height="294" viewBox="0 0 773 294">
<rect width="100%" height="100%" fill="#fff"/>
<text x="16" y="28" font-family="Arial, sans-serif" font-size="18" font-weight="700">bust_in_display</text>
<text x="16" y="183" font-family="Arial, sans-serif" font-size="12" fill="#333">28-31</text>
<rect x="118" y="168" width="14" height="16" fill="#28666e"/>
<text x="140" y="181" font-family="Arial, sans-serif" font-size="12" fill="#333">43</text>
<text x="16" y="87" font-family="Arial, sans-serif" font-size="12" fill="#333">32-35</text>
<rect x="118" y="72" width="560" height="16" fill="#28666e"/>
<text x="686" y="85" font-family="Arial, sans-serif" font-size="12" fill="#333">1,659</text>
<text x="16" y="111" font-family="Arial, sans-serif" font-size="12" fill="#333">36-39</text>
<rect x="118" y="96" width="519" height="16" fill="#28666e"/>
<text x="645" y="109" font-family="Arial, sans-serif" font-size="12" fill="#333">1,539</text>
<text x="16" y="135" font-family="Arial, sans-serif" font-size="12" fill="#333">40-43</text>
<rect x="118" y="120" width="125" height="16" fill="#28666e"/>
<text x="251" y="133" font-family="Arial, sans-serif" font-size="12" fill="#333">372</text>
<text x="16" y="159" font-family="Arial, sans-serif" font-size="12" fill="#333">44-47</text>
<rect x="118" y="144" width="37" height="16" fill="#28666e"/>
<text x="163" y="157" font-family="Arial, sans-serif" font-size="12" fill="#333">112</text>
<text x="16" y="231" font-family="Arial, sans-serif" font-size="12" fill="#333">48-51</text>
<rect x="118" y="216" width="7" height="16" fill="#28666e"/>
<text x="133" y="229" font-family="Arial, sans-serif" font-size="12" fill="#333">21</text>
<text x="16" y="255" font-family="Arial, sans-serif" font-size="12" fill="#333">52-55</text>
<rect x="118" y="240" width="3" height="16" fill="#28666e"/>
<text x="129" y="253" font-family="Arial, sans-serif" font-size="12" fill="#333">11</text>
<text x="16" y="303" font-family="Arial, sans-serif" font-size="12" fill="#333">56-59</text>
<rect x="118" y="288" width="0" height="16" fill="#28666e"/>
<text x="126" y="301" font-family="Arial, sans-serif" font-size="12" fill="#333">1</text>
<text x="16" y="207" font-family="Arial, sans-serif" font-size="12" fill="#333">&lt;28</text>
<rect x="118" y="192" width="9" height="16" fill="#28666e"/>
<text x="135" y="205" font-family="Arial, sans-serif" font-size="12" fill="#333">29</text>
<text x="16" y="279" font-family="Arial, sans-serif" font-size="12" fill="#333">60+</text>
<rect x="118" y="264" width="1" height="16" fill="#28666e"/>
<text x="127" y="277" font-family="Arial, sans-serif" font-size="12" fill="#333">4</text>
</svg>
