<svg xmlns="http://www.w3.org/2000/svg" width="773" height="462" viewBox="0 0 773 462">
<rect width="100%" height="100%" fill="#fff"/>
<text x="16" y="28" font-family="Arial, sans-serif" font-size="18" font-weight="700">height_in_display</text>
<text x="16" y="279" font-family="Arial, sans-serif" font-size="12" fill="#333">48-49</text>
<rect x="118" y="264" width="15" height="16" fill="#28666e"/>
<text x="141" y="277" font-family="Arial, sans-serif" font-size="12" fill="#333">169</text>
<text x="16" y="375" font-family="Arial, sans-serif" font-size="12" fill="#333">50-51</text>
<rect x="118" y="360" width="1" height="16" fill="#28666e"/>
<text x="127" y="373" font-family="Arial, sans-serif" font-size="12" fill="#333">19</text>
<text x="16" y="471" font-family="Arial, sans-serif" font-size="12" fill="#333">52-53</text>
<rect x="118" y="456" width="0" height="16" fill="#28666e"/>
<text x="126" y="469" font-family="Arial, sans-serif" font-size="12" fill="#333">2</text>
<text x="16" y="447" font-family="Arial, sans-serif" font-size="12" fill="#333">54-55</text>
<rect x="118" y="432" width="0" height="16" fill="#28666e"/>
<text x="126" y="445" font-family="Arial, sans-serif" font-size="12" fill="#333">5</text>
<text x="16" y="327" font-family="Arial, sans-serif" font-size="12" fill="#333">56-57</text>
<rect x="118" y="312" width="3" height="16" fill="#28666e"/>
<text x="129" y="325" font-family="Arial, sans-serif" font-size="12" fill="#333">43</text>
<text x="16" y="231" font-family="Arial, sans-serif" font-size="12" fill="#333">58-59</text>
<rect x="118" y="216" width="41" height="16" fill="#28666e"/>
<text x="167" y="229" font-family="Arial, sans-serif" font-size="12" fill="#333">471</text>
<text x="16" y="159" font-family="Arial, sans-serif" font-size="12" fill="#333">60-61</text>
<rect x="118" y="144" width="233" height="16" fill="#28666e"/>
<text x="359" y="157" font-family="Arial, sans-serif" font-size="12" fill="#333">2,627</text>
<text x="16" y="87" font-family="Arial, sans-serif" font-size="12" fill="#333">62-63</text>
<rect x="118" y="72" width="488" height="16" fill="#28666e"/>
<text x="614" y="85" font-family="Arial, sans-serif" font-size="12" fill="#333">5,483</text>
<text x="16" y="63" font-family="Arial, sans-serif" font-size="12" fill="#333">64-65</text>
<rect x="118" y="48" width="560" height="16" fill="#28666e"/>
<text x="686" y="61" font-family="Arial, sans-serif" font-size="12" fill="#333">6,290</text>
<text x="16" y="111" font-family="Arial, sans-serif" font-size="12" fill="#333">66-67</text>
<rect x="118" y="96" width="400" height="16" fill="#28666e"/>
<text x="526" y="109" font-family="Arial, sans-serif" font-size="12" fill="#333">4,493</text>
<text x="16" y="135" font-family="Arial, sans-serif" font-size="12" fill="#333">68-69</text>
<rect x="118" y="120" width="252" height="16" fill="#28666e"/>
<text x="378" y="133" font-family="Arial, sans-serif" font-size="12" fill="#333">2,836</text>
<text x="16" y="207" font-family="Arial, sans-serif" font-size="12" fill="#333">70-71</text>
<rect x="118" y="192" width="83" height="16" fill="#28666e"/>
<text x="209" y="205" font-family="Arial, sans-serif" font-size="12" fill="#333">934</text>
<text x="16" y="255" font-family="Arial, sans-serif" font-size="12" fill="#333">72-73</text>
<rect x="118" y="240" width="32" height="16" fill="#28666e"/>
<text x="158" y="253" font-family="Arial, sans-serif" font-size="12" fill="#333">362</text>
<text x="16" y="303" font-family="Arial, sans-serif" font-size="12" fill="#333">74-75</text>
<rect x="118" y="288" width="4" height="16" fill="#28666e"/>
<text x="130" y="301" font-family="Arial, sans-serif" font-size="12" fill="#333">45</text>
<text x="16" y="423" font-family="Arial, sans-serif" font-size="12" fill="#333">76-77</text>
<rect x="118" y="408" width="0" height="16" fill="#28666e"/>
<text x="126" y="421" font-family="Arial, sans-serif" font-size="12" fill="#333">6</text>
<text x="16" y="351" font-family="Arial, sans-serif" font-size="12" fill="#333">&lt;48</text>
<rect x="118" y="336" width="1" height="16" fill="#28666e"/>
<text x="127" y="349" font-family="Arial, sans-serif" font-size="12" fill="#333">21</text>
<text x="16" y="399" font-family="Arial, sans-serif" font-size="12" fill="#333">84+</text>
<rect x="118" y="384" width="0" height="16" fill="#28666e"/>
<text x="126" y="397" font-family="Arial, sans-serif" font-size="12" fill="#333">7</text>
</svg>
