<svg xmlns="http://www.w3.org/2000/svg" width="773" height="318" viewBox="0 0 773 318">
<rect width="100%" height="100%" fill="#fff"/>
<text x="16" y="28" font-family="Arial, sans-serif" font-size="18" font-weight="700">hips_in_display</text>
<text x="16" y="207" font-family="Arial, sans-serif" font-size="12" fill="#333">28-31</text>
<rect x="118" y="192" width="56" height="16" fill="#28666e"/>
<text x="182" y="205" font-family="Arial, sans-serif" font-size="12" fill="#333">39</text>
<text x="16" y="159" font-family="Arial, sans-serif" font-size="12" fill="#333">32-35</text>
<rect x="118" y="144" width="232" height="16" fill="#28666e"/>
<text x="358" y="157" font-family="Arial, sans-serif" font-size="12" fill="#333">160</text>
<text x="16" y="87" font-family="Arial, sans-serif" font-size="12" fill="#333">36-39</text>
<rect x="118" y="72" width="560" height="16" fill="#28666e"/>
<text x="686" y="85" font-family="Arial, sans-serif" font-size="12" fill="#333">386</text>
<text x="16" y="111" font-family="Arial, sans-serif" font-size="12" fill="#333">40-43</text>
<rect x="118" y="96" width="496" height="16" fill="#28666e"/>
<text x="622" y="109" font-family="Arial, sans-serif" font-size="12" fill="#333">342</text>
<text x="16" y="135" font-family="Arial, sans-serif" font-size="12" fill="#333">44-47</text>
<rect x="118" y="120" width="282" height="16" fill="#28666e"/>
<text x="408" y="133" font-family="Arial, sans-serif" font-size="12" fill="#333">195</text>
<text x="16" y="183" font-family="Arial, sans-serif" font-size="12" fill="#333">48-51</text>
<rect x="118" y="168" width="104" height="16" fill="#28666e"/>
<text x="230" y="181" font-family="Arial, sans-serif" font-size="12" fill="#333">72</text>
<text x="16" y="255" font-family="Arial, sans-serif" font-size="12" fill="#333">52-55</text>
<rect x="118" y="240" width="39" height="16" fill="#28666e"/>
<text x="165" y="253" font-family="Arial, sans-serif" font-size="12" fill="#333">27</text>
<text x="16" y="279" font-family="Arial, sans-serif" font-size="12" fill="#333">56-59</text>
<rect x="118" y="264" width="20" height="16" fill="#28666e"/>
<text x="146" y="277" font-family="Arial, sans-serif" font-size="12" fill="#333">14</text>
<text x="16" y="327" font-family="Arial, sans-serif" font-size="12" fill="#333">60-63</text>
<rect x="118" y="312" width="5" height="16" fill="#28666e"/>
<text x="131" y="325" font-family="Arial, sans-serif" font-size="12" fill="#333">4</text>
<text x="16" y="303" font-family="Arial, sans-serif" font-size="12" fill="#333">64-67</text>
<rect x="118" y="288" width="8" height="16" fill="#28666e"/>
<text x="134" y="301" font-family="Arial, sans-serif" font-size="12" fill="#333">6</text>
<text x="16" y="231" font-family="Arial, sans-serif" font-size="12" fill="#333">&lt;28</text>
<rect x="118" y="216" width="47" height="16" fill="#28666e"/>
<text x="173" y="229" font-family="Arial, sans-serif" font-size="12" fill="#333">33</text>
</svg>
