<svg xmlns="http://www.w3.org/2000/svg" width="773" height="1014" viewBox="0 0 773 1014">
<rect width="100%" height="100%" fill="#fff"/>
<text x="16" y="28" font-family="Arial, sans-serif" font-size="18" font-weight="700">size_display</text>
<text x="16" y="63" font-family="Arial, sans-serif" font-size="12" fill="#333">MEDIUM</text>
<rect x="118" y="48" width="560" height="16" fill="#28666e"/>
<text x="686" y="61" font-family="Arial, sans-serif" font-size="12" fill="#333">4,972</text>
<text x="16" y="87" font-family="Arial, sans-serif" font-size="12" fill="#333">SMALL</text>
<rect x="118" y="72" width="459" height="16" fill="#28666e"/>
<text x="585" y="85" font-family="Arial, sans-serif" font-size="12" fill="#333">4,080</text>
<text x="16" y="111" font-family="Arial, sans-serif" font-size="12" fill="#333">LARGE</text>
<rect x="118" y="96" width="400" height="16" fill="#28666e"/>
<text x="526" y="109" font-family="Arial, sans-serif" font-size="12" fill="#333">3,553</text>
<text x="16" y="135" font-family="Arial, sans-serif" font-size="12" fill="#333">X-LARGE</text>
<rect x="118" y="120" width="224" height="16" fill="#28666e"/>
<text x="350" y="133" font-family="Arial, sans-serif" font-size="12" fill="#333">1,993</text>
<text x="16" y="159" font-family="Arial, sans-serif" font-size="12" fill="#333">S</text>
<rect x="118" y="144" width="110" height="16" fill="#28666e"/>
<text x="236" y="157" font-family="Arial, sans-serif" font-size="12" fill="#333">979</text>
<text x="16" y="183" font-family="Arial, sans-serif" font-size="12" fill="#333">M</text>
<rect x="118" y="168" width="87" height="16" fill="#28666e"/>
<text x="213" y="181" font-family="Arial, sans-serif" font-size="12" fill="#333">779</text>
<text x="16" y="207" font-family="Arial, sans-serif" font-size="12" fill="#333">X-SMALL</text>
<rect x="118" y="192" width="86" height="16" fill="#28666e"/>
<text x="212" y="205" font-family="Arial, sans-serif" font-size="12" fill="#333">766</text>
<text x="16" y="231" font-family="Arial, sans-serif" font-size="12" fill="#333">XX-LARGE</text>
<rect x="118" y="216" width="80" height="16" fill="#28666e"/>
<text x="206" y="229" font-family="Arial, sans-serif" font-size="12" fill="#333">711</text>
<text x="16" y="255" font-family="Arial, sans-serif" font-size="12" fill="#333">4</text>
<rect x="118" y="240" width="71" height="16" fill="#28666e"/>
<text x="197" y="253" font-family="Arial, sans-serif" font-size="12" fill="#333">636</text>
<text x="16" y="279" font-family="Arial, sans-serif" font-size="12" fill="#333">6</text>
<rect x="118" y="264" width="71" height="16" fill="#28666e"/>
<text x="197" y="277" font-family="Arial, sans-serif" font-size="12" fill="#333">632</text>
<text x="16" y="303" font-family="Arial, sans-serif" font-size="12" fill="#333">8</text>
<rect x="118" y="288" width="67" height="16" fill="#28666e"/>
<text x="193" y="301" font-family="Arial, sans-serif" font-size="12" fill="#333">595</text>
<text x="16" y="327" font-family="Arial, sans-serif" font-size="12" fill="#333">XS</text>
<rect x="118" y="312" width="66" height="16" fill="#28666e"/>
<text x="192" y="325" font-family="Arial, sans-serif" font-size="12" fill="#333">590</text>
<text x="16" y="351" font-family="Arial, sans-serif" font-size="12" fill="#333">10</text>
<rect x="118" y="336" width="54" height="16" fill="#28666e"/>
<text x="180" y="349" font-family="Arial, sans-serif" font-size="12" fill="#333">485</text>
<text x="16" y="375" font-family="Arial, sans-serif" font-size="12" fill="#333">12</text>
<rect x="118" y="360" width="53" height="16" fill="#28666e"/>
<text x="179" y="373" font-family="Arial, sans-serif" font-size="12" fill="#333">472</text>
<text x="16" y="399" font-family="Arial, sans-serif" font-size="12" fill="#333">L</text>
<rect x="118" y="384" width="39" height="16" fill="#28666e"/>
<text x="165" y="397" font-family="Arial, sans-serif" font-size="12" fill="#333">349</text>
<text x="16" y="423" font-family="Arial, sans-serif" font-size="12" fill="#333">14</text>
<rect x="118" y="408" width="37" height="16" fill="#28666e"/>
<text x="163" y="421" font-family="Arial, sans-serif" font-size="12" fill="#333">335</text>
<text x="16" y="447" font-family="Arial, sans-serif" font-size="12" fill="#333">16</text>
<rect x="118" y="432" width="33" height="16" fill="#28666e"/>
<text x="159" y="445" font-family="Arial, sans-serif" font-size="12" fill="#333">301</text>
<text x="16" y="471" font-family="Arial, sans-serif" font-size="12" fill="#333">2</text>
<rect x="118" y="456" width="30" height="16" fill="#28666e"/>
<text x="156" y="469" font-family="Arial, sans-serif" font-size="12" fill="#333">271</text>
<text x="16" y="495" font-family="Arial, sans-serif" font-size="12" fill="#333">18</text>
<rect x="118" y="480" width="26" height="16" fill="#28666e"/>
<text x="152" y="493" font-family="Arial, sans-serif" font-size="12" fill="#333">238</text>
<text x="16" y="519" font-family="Arial, sans-serif" font-size="12" fill="#333">3X-LARGE</text>
<rect x="118" y="504" width="20" height="16" fill="#28666e"/>
<text x="146" y="517" font-family="Arial, sans-serif" font-size="12" fill="#333">182</text>
<text x="16" y="543" font-family="Arial, sans-serif" font-size="12" fill="#333">XL</text>
<rect x="118" y="528" width="17" height="16" fill="#28666e"/>
<text x="143" y="541" font-family="Arial, sans-serif" font-size="12" fill="#333">158</text>
<text x="16" y="567" font-family="Arial, sans-serif" font-size="12" fill="#333">27</text>
<rect x="118" y="552" width="16" height="16" fill="#28666e"/>
<text x="142" y="565" font-family="Arial, sans-serif" font-size="12" fill="#333">147</text>
<text x="16" y="591" font-family="Arial, sans-serif" font-size="12" fill="#333">26</text>
<rect x="118" y="576" width="14" height="16" fill="#28666e"/>
<text x="140" y="589" font-family="Arial, sans-serif" font-size="12" fill="#333">128</text>
<text x="16" y="615" font-family="Arial, sans-serif" font-size="12" fill="#333">24</text>
<rect x="118" y="600" width="12" height="16" fill="#28666e"/>
<text x="138" y="613" font-family="Arial, sans-serif" font-size="12" fill="#333">109</text>
<text x="16" y="639" font-family="Arial, sans-serif" font-size="12" fill="#333">28</text>
<rect x="118" y="624" width="11" height="16" fill="#28666e"/>
<text x="137" y="637" font-family="Arial, sans-serif" font-size="12" fill="#333">101</text>
<text x="16" y="663" font-family="Arial, sans-serif" font-size="12" fill="#333">0</text>
<rect x="118" y="648" width="11" height="16" fill="#28666e"/>
<text x="137" y="661" font-family="Arial, sans-serif" font-size="12" fill="#333">101</text>
<text x="16" y="687" font-family="Arial, sans-serif" font-size="12" fill="#333">30</text>
<rect x="118" y="672" width="10" height="16" fill="#28666e"/>
<text x="136" y="685" font-family="Arial, sans-serif" font-size="12" fill="#333">95</text>
<text x="16" y="735" font-family="Arial, sans-serif" font-size="12" fill="#333">ONE</text>
<rect x="118" y="720" width="10" height="16" fill="#28666e"/>
<text x="136" y="733" font-family="Arial, sans-serif" font-size="12" fill="#333">90</text>
<text x="16" y="711" font-family="Arial, sans-serif" font-size="12" fill="#333">29</text>
<rect x="118" y="696" width="10" height="16" fill="#28666e"/>
<text x="136" y="709" font-family="Arial, sans-serif" font-size="12" fill="#333">90</text>
<text x="16" y="759" font-family="Arial, sans-serif" font-size="12" fill="#333">22</text>
<rect x="118" y="744" width="9" height="16" fill="#28666e"/>
<text x="135" y="757" font-family="Arial, sans-serif" font-size="12" fill="#333">83</text>
<text x="16" y="783" font-family="Arial, sans-serif" font-size="12" fill="#333">20</text>
<rect x="118" y="768" width="8" height="16" fill="#28666e"/>
<text x="134" y="781" font-family="Arial, sans-serif" font-size="12" fill="#333">79</text>
<text x="16" y="807" font-family="Arial, sans-serif" font-size="12" fill="#333">25</text>
<rect x="118" y="792" width="8" height="16" fill="#28666e"/>
<text x="134" y="805" font-family="Arial, sans-serif" font-size="12" fill="#333">75</text>
<text x="16" y="831" font-family="Arial, sans-serif" font-size="12" fill="#333">XXS</text>
<rect x="118" y="816" width="6" height="16" fill="#28666e"/>
<text x="132" y="829" font-family="Arial, sans-serif" font-size="12" fill="#333">61</text>
<text x="16" y="855" font-family="Arial, sans-serif" font-size="12" fill="#333">1X</text>
<rect x="118" y="840" width="6" height="16" fill="#28666e"/>
<text x="132" y="853" font-family="Arial, sans-serif" font-size="12" fill="#333">58</text>
<text x="16" y="879" font-family="Arial, sans-serif" font-size="12" fill="#333">8-10</text>
<rect x="118" y="864" width="6" height="16" fill="#28666e"/>
<text x="132" y="877" font-family="Arial, sans-serif" font-size="12" fill="#333">57</text>
<text x="16" y="903" font-family="Arial, sans-serif" font-size="12" fill="#333">7</text>
<rect x="118" y="888" width="5" height="16" fill="#28666e"/>
<text x="131" y="901" font-family="Arial, sans-serif" font-size="12" fill="#333">50</text>
<text x="16" y="927" font-family="Arial, sans-serif" font-size="12" fill="#333">4-6</text>
<rect x="118" y="912" width="5" height="16" fill="#28666e"/>
<text x="131" y="925" font-family="Arial, sans-serif" font-size="12" fill="#333">49</text>
<text x="16" y="951" font-family="Arial, sans-serif" font-size="12" fill="#333">31</text>
<rect x="118" y="936" width="5" height="16" fill="#28666e"/>
<text x="131" y="949" font-family="Arial, sans-serif" font-size="12" fill="#333">49</text>
<text x="16" y="975" font-family="Arial, sans-serif" font-size="12" fill="#333">XX-SMALL</text>
<rect x="118" y="960" width="5" height="16" fill="#28666e"/>
<text x="131" y="973" font-family="Arial, sans-serif" font-size="12" fill="#333">45</text>
<text x="16" y="999" font-family="Arial, sans-serif" font-size="12" fill="#333">00</text>
<rect x="118" y="984" width="4" height="16" fill="#28666e"/>
<text x="130" y="997" font-family="Arial, sans-serif" font-size="12" fill="#333">43</text>
</svg>
