<svg xmlns="http://www.w3.org/2000/svg" width="773" height="318" viewBox="0 0 773 318">
<rect width="100%" height="100%" fill="#fff"/>
<text x="16" y="28" font-family="Arial, sans-serif" font-size="18" font-weight="700">waist_in</text>
<text x="16" y="231" font-family="Arial, sans-serif" font-size="12" fill="#333">20-23</text>
<rect x="118" y="216" width="11" height="16" fill="#28666e"/>
<text x="137" y="229" font-family="Arial, sans-serif" font-size="12" fill="#333">14</text>
<text x="16" y="111" font-family="Arial, sans-serif" font-size="12" fill="#333">24-27</text>
<rect x="118" y="96" width="386" height="16" fill="#28666e"/>
<text x="512" y="109" font-family="Arial, sans-serif" font-size="12" fill="#333">456</text>
<text x="16" y="87" font-family="Arial, sans-serif" font-size="12" fill="#333">28-31</text>
<rect x="118" y="72" width="560" height="16" fill="#28666e"/>
<text x="686" y="85" font-family="Arial, sans-serif" font-size="12" fill="#333">661</text>
<text x="16" y="135" font-family="Arial, sans-serif" font-size="12" fill="#333">32-35</text>
<rect x="118" y="120" width="205" height="16" fill="#28666e"/>
<text x="331" y="133" font-family="Arial, sans-serif" font-size="12" fill="#333">243</text>
<text x="16" y="159" font-family="Arial, sans-serif" font-size="12" fill="#333">36-39</text>
<rect x="118" y="144" width="127" height="16" fill="#28666e"/>
<text x="253" y="157" font-family="Arial, sans-serif" font-size="12" fill="#333">151</text>
<text x="16" y="183" font-family="Arial, sans-serif" font-size="12" fill="#333">40-43</text>
<rect x="118" y="168" width="57" height="16" fill="#28666e"/>
<text x="183" y="181" font-family="Arial, sans-serif" font-size="12" fill="#333">68</text>
<text x="16" y="207" font-family="Arial, sans-serif" font-size="12" fill="#333">44-47</text>
<rect x="118" y="192" width="28" height="16" fill="#28666e"/>
<text x="154" y="205" font-family="Arial, sans-serif" font-size="12" fill="#333">34</text>
<text x="16" y="279" font-family="Arial, sans-serif" font-size="12" fill="#333">48-51</text>
<rect x="118" y="264" width="6" height="16" fill="#28666e"/>
<text x="132" y="277" font-family="Arial, sans-serif" font-size="12" fill="#333">8</text>
<text x="16" y="255" font-family="Arial, sans-serif" font-size="12" fill="#333">52-55</text>
<rect x="118" y="240" width="9" height="16" fill="#28666e"/>
<text x="135" y="253" font-family="Arial, sans-serif" font-size="12" fill="#333">11</text>
<text x="16" y="303" font-family="Arial, sans-serif" font-size="12" fill="#333">56-59</text>
<rect x="118" y="288" width="5" height="16" fill="#28666e"/>
<text x="131" y="301" font-family="Arial, sans-serif" font-size="12" fill="#333">7</text>
<text x="16" y="327" font-family="Arial, sans-serif" font-size="12" fill="#333">60+</text>
<rect x="118" y="312" width="3" height="16" fill="#28666e"/>
<text x="129" y="325" font-family="Arial, sans-serif" font-size="12" fill="#333">4</text>
</svg>
