<svg xmlns="http://www.w3.org/2000/svg" width="773" height="390" viewBox="0 0 773 390">
<rect width="100%" height="100%" fill="#fff"/>
<text x="16" y="28" font-family="Arial, sans-serif" font-size="18" font-weight="700">weight_lbs_display</text>
<text x="16" y="303" font-family="Arial, sans-serif" font-size="12" fill="#333">80-99</text>
<rect x="118" y="288" width="10" height="16" fill="#28666e"/>
<text x="136" y="301" font-family="Arial, sans-serif" font-size="12" fill="#333">88</text>
<text x="16" y="159" font-family="Arial, sans-serif" font-size="12" fill="#333">100-119</text>
<rect x="118" y="144" width="221" height="16" fill="#28666e"/>
<text x="347" y="157" font-family="Arial, sans-serif" font-size="12" fill="#333">1,871</text>
<text x="16" y="87" font-family="Arial, sans-serif" font-size="12" fill="#333">120-139</text>
<rect x="118" y="72" width="560" height="16" fill="#28666e"/>
<text x="686" y="85" font-family="Arial, sans-serif" font-size="12" fill="#333">4,724</text>
<text x="16" y="111" font-family="Arial, sans-serif" font-size="12" fill="#333">140-159</text>
<rect x="118" y="96" width="490" height="16" fill="#28666e"/>
<text x="616" y="109" font-family="Arial, sans-serif" font-size="12" fill="#333">4,138</text>
<text x="16" y="135" font-family="Arial, sans-serif" font-size="12" fill="#333">160-179</text>
<rect x="118" y="120" width="308" height="16" fill="#28666e"/>
<text x="434" y="133" font-family="Arial, sans-serif" font-size="12" fill="#333">2,602</text>
<text x="16" y="183" font-family="Arial, sans-serif" font-size="12" fill="#333">180-199</text>
<rect x="118" y="168" width="157" height="16" fill="#28666e"/>
<text x="283" y="181" font-family="Arial, sans-serif" font-size="12" fill="#333">1,326</text>
<text x="16" y="207" font-family="Arial, sans-serif" font-size="12" fill="#333">200-219</text>
<rect x="118" y="192" width="92" height="16" fill="#28666e"/>
<text x="218" y="205" font-family="Arial, sans-serif" font-size="12" fill="#333">777</text>
<text x="16" y="231" font-family="Arial, sans-serif" font-size="12" fill="#333">220-239</text>
<rect x="118" y="216" width="45" height="16" fill="#28666e"/>
<text x="171" y="229" font-family="Arial, sans-serif" font-size="12" fill="#333">384</text>
<text x="16" y="255" font-family="Arial, sans-serif" font-size="12" fill="#333">240-259</text>
<rect x="118" y="240" width="19" height="16" fill="#28666e"/>
<text x="145" y="253" font-family="Arial, sans-serif" font-size="12" fill="#333">165</text>
<text x="16" y="279" font-family="Arial, sans-serif" font-size="12" fill="#333">260-279</text>
<rect x="118" y="264" width="12" height="16" fill="#28666e"/>
<text x="138" y="277" font-family="Arial, sans-serif" font-size="12" fill="#333">104</text>
<text x="16" y="351" font-family="Arial, sans-serif" font-size="12" fill="#333">280-299</text>
<rect x="118" y="336" width="5" height="16" fill="#28666e"/>
<text x="131" y="349" font-family="Arial, sans-serif" font-size="12" fill="#333">47</text>
<text x="16" y="375" font-family="Arial, sans-serif" font-size="12" fill="#333">300-319</text>
<rect x="118" y="360" width="3" height="16" fill="#28666e"/>
<text x="129" y="373" font-family="Arial, sans-serif" font-size="12" fill="#333">30</text>
<text x="16" y="327" font-family="Arial, sans-serif" font-size="12" fill="#333">320+</text>
<rect x="118" y="312" width="5" height="16" fill="#28666e"/>
<text x="131" y="325" font-family="Arial, sans-serif" font-size="12" fill="#333">49</text>
<text x="16" y="399" font-family="Arial, sans-serif" font-size="12" fill="#333">&lt;80</text>
<rect x="118" y="384" width="0" height="16" fill="#28666e"/>
<text x="126" y="397" font-family="Arial, sans-serif" font-size="12" fill="#333">3</text>
</svg>
